# xmcd CD database file
#
# Track frame offsets:
#	150
#	27699
#	54413
#	76081
#	101410
#	119768
#	151161
#	176737
#
# Disc length: 2651 seconds
#
# Revision: 0
# Processed by: cddbd v1.5.2PL0 Copyright (c) Steve Scherf et al.
# Submitted via: CDex 1.70beta2
#
DISCID=600a5908
DTITLE=Franki Hernandez - Frankie Hernandez
DYEAR=1981
DGENRE=Salsa
TTITLE0=Que Me Perdonen Las Dos
TTITLE1=Morejon
TTITLE2=El Amor Primero
TTITLE3=Fieras Humanas
TTITLE4=Me Levante De La Mesa
TTITLE5=Añoranza
TTITLE6=Corazón Vagabundo
TTITLE7=El Distante
EXTD=YEAR: 1981
EXTT0=
EXTT1=
EXTT2=
EXTT3=
EXTT4=
EXTT5=
EXTT6=
EXTT7=
PLAYORDER=
